<svg viewBox="0 0 145 107" fill="none" xmlns="http://www.w3.org/2000/svg">
  <path fill-rule="evenodd" clip-rule="evenodd" d="M36 69L74.4471 0L112 69H36ZM67 104V100H11C4.92487 100 0 95.0165 0 88.869V26.131C0 19.9835 4.92487 12.5 11 12.5H57.551L56.9678 13.5H11C8.38894 13.5 5.90199 15.1173 4.02021 17.6123C2.14443 20.0994 1 23.2997 1 26.131V88.869C1 94.4754 5.48828 99 11 99H67H69H76H78H134C139.512 99 144 94.4754 144 88.869V26.131C144 23.2997 142.856 20.0994 140.98 17.6123C139.098 15.1173 136.611 13.5 134 13.5H90.3461L89.7519 12.5H134C140.075 12.5 145 19.9835 145 26.131V88.869C145 95.0165 140.075 100 134 100H78V104H85.5C86.3284 104 87 104.672 87 105.5C87 106.328 86.3284 107 85.5 107H78H76H69H67H59.5C58.6716 107 58 106.328 58 105.5C58 104.672 58.6716 104 59.5 104H67ZM76 100H69V104H76V100ZM93.9112 19.5H127C129.664 19.5 132.153 20.9371 134.008 23.1777C135.863 25.4186 137 28.3696 137 31.1905V83.8095C137 86.5909 135.897 88.7299 134.139 90.191C132.361 91.6681 129.852 92.5 127 92.5H18C15.1484 92.5 12.6386 91.6681 10.8609 90.191C9.10273 88.7299 8 86.5909 8 83.8095V31.1905C8 28.3696 9.13667 25.4186 10.9921 23.1777C12.8472 20.9371 15.3363 19.5 18 19.5H53.4691L54.6354 17.5H18C14.5885 17.5 11.5777 19.3344 9.45158 21.9022C7.32577 24.4697 6 27.8639 6 31.1905V83.8095C6 87.1756 7.35971 89.8819 9.5827 91.7292C11.7863 93.5603 14.7765 94.5 18 94.5H127C130.224 94.5 133.214 93.5603 135.417 91.7292C137.64 89.8819 139 87.1756 139 83.8095V31.1905C139 27.8639 137.674 24.4697 135.548 21.9022C133.422 19.3344 130.411 17.5 127 17.5H92.7228L93.9112 19.5ZM71.6393 50.0552H76.9772L77.4247 18H71.2237L71.6393 50.0552ZM71.863 57.5092C71.2877 58.1227 71 58.8896 71 59.8098C71 60.7301 71.2877 61.4969 71.863 62.1104C72.4597 62.7035 73.3333 63 74.484 63C75.6347 63 76.5084 62.7035 77.105 62.1104C77.7017 61.4969 78 60.7301 78 59.8098C78 58.8896 77.7017 58.1227 77.105 57.5092C76.5084 56.8753 75.6347 56.5583 74.484 56.5583C73.3333 56.5583 72.4597 56.8753 71.863 57.5092Z" fill="#EE8585"/>
  </svg>
  