<svg version="1.1" xmlns="http://www.w3.org/2000/svg" xmlns:xlink="http://www.w3.org/1999/xlink" preserveAspectRatio="xMidYMid meet" viewBox="0 0 420 420" width="420" height="420">
  <defs>
    <path d="M113.86 36.12C94.09 85.55 105.83 135.98 149.08 187.41C205.59 236.18 242.35 277.89 259.36 312.52C284.86 364.46 262.91 384.76 238.82 401.55C214.73 418.34 208.05 418.82 174.63 409.9C152.35 403.96 133.29 387.16 117.44 359.51L111.54 341.79L106.14 341.79L101.19 378.86L4.88 324.49L4.88 93.42C64.56 59.55 100.89 40.44 113.86 36.12Z" id="abikkFWz7"></path>
    <path d="M294.11 57.43L295.73 46.98L297.35 30.1L415.12 96.82L415.12 323.87C399.01 336.84 363.77 356.61 309.4 383.18C340.29 323.25 319.9 262.71 248.24 201.54C194.47 160.14 162.96 123.38 153.71 91.26C139.83 43.07 164.43 15.49 192.71 8.8C209.67 4.79 231.65 4.02 257.75 18.79C269.56 25.47 279.67 38.35 288.08 57.43" id="a3f5f0y1wZ"></path>
  </defs>
  <g>
    <g>
      <g>
        <g>
          <use xlink:href="#abikkFWz7" opacity="1" fill="#329ef7" fill-opacity="1"></use>
          <g>
            <use xlink:href="#abikkFWz7" opacity="1" fill-opacity="0" stroke="#000000" stroke-width="0" stroke-opacity="1"></use>
          </g>
        </g>
        <g>
          <use xlink:href="#a3f5f0y1wZ" opacity="1" fill="#329ef7" fill-opacity="1"></use>
          <g>
            <use xlink:href="#a3f5f0y1wZ" opacity="1" fill-opacity="0" stroke="#000000" stroke-width="0" stroke-opacity="1"></use>
          </g>
        </g>
      </g>
    </g>
  </g>
</svg>